<svg id="图层_1" data-name="图层 1" xmlns="http://www.w3.org/2000/svg" xmlns:xlink="http://www.w3.org/1999/xlink" viewBox="0 0 1220.66 704.7"><defs><style>.cls-1{fill:url(#未命名的渐变_13);}</style><linearGradient id="未命名的渐变_13" x1="364.87" y1="1104.11" x2="1121.67" y2="347.32" gradientUnits="userSpaceOnUse"><stop offset="0" stop-color="#78c9d6"/><stop offset="1" stop-color="#fff"/></linearGradient></defs><path class="cls-1" d="M1256,481.7H924.59l-124.11,216-38.65-153,36.2-63H607.16L354.71,921H545.57l83.69-145.6L666.05,921H863l192.31-334.62c18.84,16.67,35.55,34.23,49.32,52.33,58.73,75.76,53.37,156.4-9.49,228.29C926.5,1054.21,560,1058,349.48,944.69,290.15,912.27,235.4,866,207.71,802.43c-17.68-41.46-27.89-87-22.26-132.07,7.92-71.06,54.61-135.2,111.94-177.06V450.64c-2.58,1.25-5.51,2.77-8,4.11-57.22,31.42-107.27,78.77-137.66,137.8-33.56,63.9-37.63,141.29-19.33,210.57,3.08,11.34,6.44,23.12,10.42,34.19A295.36,295.36,0,0,0,157.27,871c53.91,106.5,159,176.11,265.23,219.61,211.2,83.3,467,92.7,673.6-10.33,91.84-46.2,178.4-122.41,219.47-222.25,47.88-113.16,28.32-237.37-34.81-339.54Q1269,499.33,1256,481.7Z" transform="translate(-121.59 -450.64)"/></svg>