<svg width="240" height="160" viewBox="0 0 240 160" fill="none" xmlns="http://www.w3.org/2000/svg">
  <defs>
    <linearGradient id="grad" x1="30" y1="20" x2="210" y2="140" gradientUnits="userSpaceOnUse">
      <stop stop-color="#00F7FF"/>
      <stop offset="1" stop-color="#F8FFFF"/>
    </linearGradient>
  </defs>
  <rect width="240" height="160" rx="24" fill="#0D0D0D"/>
  <path d="M206 56c4 8 6 16 6 24 0 44-48 76-110 76C64 156 16 126 16 84c0-24 16-45 40-58v16c-8 8-12 18-12 28 0 30 32 50 74 50 38 0 72-18 72-42 0-10-6-20-16-28l8-14c8 6 16 12 24 20Z" fill="url(#grad)"/>
  <path d="M128 100h-36l-6-26-16 26H46l40-68h28l-6 12 6 22 20-34h32l-38 68Z" fill="url(#grad)"/>
</svg>

